<svg xmlns="http://www.w3.org/2000/svg" xmlns:xlink="http://www.w3.org/1999/xlink" viewBox="959.342 337.18 280.689 179.82"><defs><style>.a{fill:#fff;}.b{filter:url(#i);}.c{filter:url(#g);}.d{filter:url(#e);}.e{filter:url(#c);}.f{filter:url(#a);}</style><filter id="a" x="967.736" y="444.18" width="221.264" height="72.82" filterUnits="userSpaceOnUse"><feOffset dy="3" input="SourceAlpha"/><feGaussianBlur stdDeviation="3" result="b"/><feFlood flood-opacity="0.161"/><feComposite operator="in" in2="b"/><feComposite in="SourceGraphic"/></filter><filter id="c" x="959.342" y="421.18" width="188.053" height="63.863" filterUnits="userSpaceOnUse"><feOffset dy="3" input="SourceAlpha"/><feGaussianBlur stdDeviation="3" result="d"/><feFlood flood-opacity="0.161"/><feComposite operator="in" in2="d"/><feComposite in="SourceGraphic"/></filter><filter id="e" x="971.116" y="399" width="268.915" height="100.205" filterUnits="userSpaceOnUse"><feOffset dy="3" input="SourceAlpha"/><feGaussianBlur stdDeviation="3" result="f"/><feFlood flood-opacity="0.161"/><feComposite operator="in" in2="f"/><feComposite in="SourceGraphic"/></filter><filter id="g" x="967.736" y="354.18" width="221.264" height="107.932" filterUnits="userSpaceOnUse"><feOffset dy="3" input="SourceAlpha"/><feGaussianBlur stdDeviation="3" result="h"/><feFlood flood-opacity="0.161"/><feComposite operator="in" in2="h"/><feComposite in="SourceGraphic"/></filter><filter id="i" x="979.736" y="337.18" width="221.264" height="91.686" filterUnits="userSpaceOnUse"><feOffset dy="3" input="SourceAlpha"/><feGaussianBlur stdDeviation="3" result="j"/><feFlood flood-opacity="0.161"/><feComposite operator="in" in2="j"/><feComposite in="SourceGraphic"/></filter></defs><g transform="translate(918 83)"><g class="f" transform="matrix(1, 0, 0, 1, -918, -83)"><path class="a" d="M-97.264,51.18h106L106,106H0Z" transform="translate(1074 399)"/></g><g class="e" transform="matrix(1, 0, 0, 1, -918, -83)"><path class="a" d="M-97.264,51.18H-8.583L72.789,97.043H-15.892Z" transform="translate(1065.61 376)"/></g><g class="d" transform="matrix(1, 0, 0, 1, -918, -83)"><path class="a" d="M-97.264,51.18H33.586l120.065,82.205H22.8Z" transform="translate(1077.38 353.82)"/></g><g class="c" transform="matrix(1, 0, 0, 1, -918, -83)"><path class="a" d="M-97.264,51.18h106L106,141.111H0Z" transform="translate(1074 309)"/></g><g class="b" transform="matrix(1, 0, 0, 1, -918, -83)"><path class="a" d="M-97.264,51.18h106L106,124.865H0Z" transform="translate(1086 292)"/></g></g></svg>