<svg xmlns="http://www.w3.org/2000/svg" viewBox="945 412 290.5 261.953"><defs><style>.a,.b,.f{fill:none;}.a{stroke:#b9b9b9;}.a,.b,.c,.d{stroke-width:1px;}.b{stroke:#95989a;}.c{fill:#b9b9b9;}.c,.d{stroke:rgba(0,0,0,0);}.d{fill:#50514f;}.e{stroke:none;}</style></defs><g transform="translate(928 128)"><path class="a" d="M-633,132.953H-922V-128h289V132.953Z" transform="translate(939.5 412.5)"/><g class="b" transform="translate(23 292)"><circle class="e" cx="5" cy="5" r="5"/><circle class="f" cx="5" cy="5" r="4.5"/></g><g class="b" transform="translate(36 292)"><circle class="e" cx="5" cy="5" r="5"/><circle class="f" cx="5" cy="5" r="4.5"/></g><g class="b" transform="translate(49 292)"><circle class="e" cx="5" cy="5" r="5"/><circle class="f" cx="5" cy="5" r="4.5"/></g><line class="a" x2="290" transform="translate(17.5 309.5)"/><path class="c" d="M1.582,11H6.41V10H4.594V2.252H3.41l-1.969.434V3.764l1.98-.445V10H1.582Zm9.234.158a.924.924,0,0,0,.674-.275,1.065,1.065,0,0,0,0-1.43.962.962,0,0,0-1.348,0,1.065,1.065,0,0,0,0,1.43A.924.924,0,0,0,10.816,11.158ZM.891,24H6.205V23H2.127C3.17,21.9,3.492,21.633,4.09,20.988c.416-.445.721-.8.949-1.061a5.129,5.129,0,0,0,.85-1.23,2.78,2.78,0,0,0,.258-1.154,2.308,2.308,0,0,0-.773-1.77,3.075,3.075,0,0,0-2.074-.68,4.642,4.642,0,0,0-1.148.146,6.4,6.4,0,0,0-1.189.434v1.2A6.172,6.172,0,0,1,2.2,16.283a3.564,3.564,0,0,1,1.113-.193,1.652,1.652,0,0,1,1.189.416,1.52,1.52,0,0,1,.428,1.137,2.147,2.147,0,0,1-.205.914,5.145,5.145,0,0,1-.8,1.16c-.217.264-.328.387-1.125,1.248-.7.756-1.324,1.418-1.77,1.887a.461.461,0,0,0-.146.363Zm9.926.158a.924.924,0,0,0,.674-.275,1.065,1.065,0,0,0,0-1.43.962.962,0,0,0-1.348,0,1.065,1.065,0,0,0,0,1.43A.924.924,0,0,0,10.816,24.158ZM3.316,37.17a3.41,3.41,0,0,0,2.273-.691,2.375,2.375,0,0,0,.8-1.887,2.277,2.277,0,0,0-.457-1.465,2.4,2.4,0,0,0-1.318-.809,2.2,2.2,0,0,0,1.172-.68,1.82,1.82,0,0,0,.4-1.213,2.122,2.122,0,0,0-.756-1.693,3.133,3.133,0,0,0-2.039-.639,5.621,5.621,0,0,0-.99.094q-.554.1-1.266.281v1.09A6.739,6.739,0,0,1,2.3,29.207a5.431,5.431,0,0,1,1.061-.117,1.825,1.825,0,0,1,1.23.357,1.292,1.292,0,0,1,.422,1.02,1.216,1.216,0,0,1-.451,1.014,2.02,2.02,0,0,1-1.277.357h-.9v.973h.9a2.128,2.128,0,0,1,1.418.445,1.539,1.539,0,0,1,.516,1.23A1.562,1.562,0,0,1,4.7,35.734a2.251,2.251,0,0,1-1.494.439,4.594,4.594,0,0,1-1.154-.152,6.073,6.073,0,0,1-1.178-.48v1.2a8.548,8.548,0,0,0,1.23.322A6.915,6.915,0,0,0,3.316,37.17Zm7.5-.012a.924.924,0,0,0,.674-.275,1.065,1.065,0,0,0,0-1.43.962.962,0,0,0-1.348,0,1.065,1.065,0,0,0,0,1.43A.924.924,0,0,0,10.816,37.158ZM4.307,50H5.484V47.914H6.65v-.961H5.484v-5.7H4.113L.6,46.795v1.119H4.307Zm-2.76-3.047,2.76-4.623v4.623Zm9.27,3.205a.924.924,0,0,0,.674-.275,1.065,1.065,0,0,0,0-1.43.962.962,0,0,0-1.348,0,1.065,1.065,0,0,0,0,1.43A.924.924,0,0,0,10.816,50.158ZM3.076,63.17a3.261,3.261,0,0,0,2.361-.791,3.343,3.343,0,0,0,.035-4.359,2.951,2.951,0,0,0-2.156-.8,2.874,2.874,0,0,0-.516.041,2.756,2.756,0,0,0-.51.141v-2.15H5.643v-1H1.213v4.395a3.906,3.906,0,0,1,.861-.328,4.029,4.029,0,0,1,.9-.105,2.2,2.2,0,0,1,1.553.516,2.269,2.269,0,0,1,.018,2.93,2.093,2.093,0,0,1-1.541.516,4.123,4.123,0,0,1-1.084-.146,5.044,5.044,0,0,1-1.084-.434v1.2a4.842,4.842,0,0,0,1.037.281A7.815,7.815,0,0,0,3.076,63.17Zm7.74-.012a.924.924,0,0,0,.674-.275,1.065,1.065,0,0,0,0-1.43.962.962,0,0,0-1.348,0,1.065,1.065,0,0,0,0,1.43A.924.924,0,0,0,10.816,63.158ZM3.709,76.17a2.6,2.6,0,0,0,2.027-.779,3.807,3.807,0,0,0,.018-4.4,2.5,2.5,0,0,0-1.916-.773,2.147,2.147,0,0,0-1.189.311,2.106,2.106,0,0,0-.779.9,4.44,4.44,0,0,1,.58-2.5,1.937,1.937,0,0,1,1.717-.844,3.3,3.3,0,0,1,.855.111,3.2,3.2,0,0,1,.785.334v-1.09a5.033,5.033,0,0,0-.838-.264,4.371,4.371,0,0,0-.879-.088,2.874,2.874,0,0,0-2.461,1.16,5.839,5.839,0,0,0-.85,3.5,6.189,6.189,0,0,0,.715,3.311A2.411,2.411,0,0,0,3.709,76.17Zm0-.926a1.457,1.457,0,0,1-1.2-.539,2.852,2.852,0,0,1,0-3.023,1.461,1.461,0,0,1,1.207-.539,1.391,1.391,0,0,1,1.166.516,3.145,3.145,0,0,1,0,3.064A1.378,1.378,0,0,1,3.709,75.244Zm7.107.914a.924.924,0,0,0,.674-.275,1.065,1.065,0,0,0,0-1.43.962.962,0,0,0-1.348,0,1.065,1.065,0,0,0,0,1.43A.924.924,0,0,0,10.816,76.158ZM1.957,89H3.193l3.129-8.244v-.5H.814v1H5Zm8.859.158a.924.924,0,0,0,.674-.275,1.065,1.065,0,0,0,0-1.43.962.962,0,0,0-1.348,0,1.065,1.065,0,0,0,0,1.43A.924.924,0,0,0,10.816,89.158ZM3.6,102.17a3.123,3.123,0,0,0,2.1-.662,2.685,2.685,0,0,0,.293-3.375,2.252,2.252,0,0,0-1.348-.779,2.15,2.15,0,0,0,1.184-.721,1.971,1.971,0,0,0,.422-1.289A2.057,2.057,0,0,0,5.543,93.7a2.853,2.853,0,0,0-1.934-.609,2.836,2.836,0,0,0-1.928.609,2.084,2.084,0,0,0-.709,1.635,2,2,0,0,0,.428,1.3,2.159,2.159,0,0,0,1.178.715,2.254,2.254,0,0,0-1.342.779,2.387,2.387,0,0,0-.469,1.523,2.322,2.322,0,0,0,.756,1.852A3.072,3.072,0,0,0,3.6,102.17Zm.006-5.256a1.482,1.482,0,0,1-1.084-.369,1.431,1.431,0,0,1-.375-1.072,1.474,1.474,0,0,1,.375-1.09,1.46,1.46,0,0,1,1.084-.375,1.48,1.48,0,0,1,1.1.375,1.5,1.5,0,0,1,.369,1.09A1.431,1.431,0,0,1,4.7,96.545,1.5,1.5,0,0,1,3.609,96.914Zm.018,4.33a1.664,1.664,0,0,1-1.236-.451,1.758,1.758,0,0,1-.434-1.26,1.731,1.731,0,0,1,.434-1.248,1.626,1.626,0,0,1,1.219-.439,1.638,1.638,0,0,1,1.225.445,1.694,1.694,0,0,1,.434,1.26A1.726,1.726,0,0,1,4.84,100.8,1.61,1.61,0,0,1,3.627,101.244Zm7.189.914a.924.924,0,0,0,.674-.275,1.065,1.065,0,0,0,0-1.43.962.962,0,0,0-1.348,0,1.065,1.065,0,0,0,0,1.43A.924.924,0,0,0,10.816,102.158ZM3.094,115.17a2.917,2.917,0,0,0,2.473-1.16,5.834,5.834,0,0,0,.844-3.5A6.239,6.239,0,0,0,5.7,107.2a2.411,2.411,0,0,0-2.215-1.1,2.607,2.607,0,0,0-2.021.768,3.79,3.79,0,0,0-.018,4.406,2.447,2.447,0,0,0,1.893.779,2.212,2.212,0,0,0,1.207-.311,2.113,2.113,0,0,0,.773-.9,4.471,4.471,0,0,1-.574,2.49,1.932,1.932,0,0,1-1.711.85,3.283,3.283,0,0,1-.861-.117,3.34,3.34,0,0,1-.785-.328v1.09a5.267,5.267,0,0,0,.838.264A3.942,3.942,0,0,0,3.094,115.17Zm.381-4.049a1.377,1.377,0,0,1-1.166-.516,3.157,3.157,0,0,1,0-3.07,1.391,1.391,0,0,1,1.166-.516,1.461,1.461,0,0,1,1.207.539,2.885,2.885,0,0,1,0,3.023A1.461,1.461,0,0,1,3.475,111.121Zm7.342,4.037a.924.924,0,0,0,.674-.275,1.065,1.065,0,0,0,0-1.43.962.962,0,0,0-1.348,0,1.065,1.065,0,0,0,0,1.43A.924.924,0,0,0,10.816,115.158ZM1.582,128H6.41v-1H4.594v-7.752H3.41l-1.969.434v1.078l1.98-.445V127H1.582Zm9.252.17a2.346,2.346,0,0,0,2.121-1.148,8.394,8.394,0,0,0,0-6.779,2.342,2.342,0,0,0-2.121-1.148,2.324,2.324,0,0,0-2.115,1.148,8.394,8.394,0,0,0,0,6.779A2.324,2.324,0,0,0,10.834,128.17Zm0-.937a1.308,1.308,0,0,1-1.23-.891,6.705,6.705,0,0,1-.41-2.707,6.6,6.6,0,0,1,.41-2.713,1.3,1.3,0,0,1,2.473.006,9.265,9.265,0,0,1,0,5.414A1.32,1.32,0,0,1,10.834,127.232Zm.012-1.553c.205,0,.381-.275.48-.855a9.082,9.082,0,0,0,.1-1.172,7.86,7.86,0,0,0-.129-1.219c-.111-.545-.258-.855-.475-.855-.193,0-.346.281-.457.838a6.723,6.723,0,0,0-.117,1.189,7.852,7.852,0,0,0,.135,1.23C10.477,125.293,10.6,125.68,10.846,125.68Zm7.2,2.479a.924.924,0,0,0,.674-.275,1.065,1.065,0,0,0,0-1.43.962.962,0,0,0-1.348,0,1.065,1.065,0,0,0,0,1.43A.924.924,0,0,0,18.041,128.158ZM1.582,141H6.41v-1H4.594v-7.752H3.41l-1.969.434v1.078l1.98-.445V140H1.582Zm7.225,0h4.828v-1H11.818v-7.752H10.635l-1.969.434v1.078l1.98-.445V140H8.807Zm9.234.158a.924.924,0,0,0,.674-.275,1.065,1.065,0,0,0,0-1.43.962.962,0,0,0-1.348,0,1.065,1.065,0,0,0,0,1.43A.924.924,0,0,0,18.041,141.158ZM1.582,154H6.41v-1H4.594v-7.752H3.41l-1.969.434v1.078l1.98-.445V153H1.582Zm6.533,0H13.43v-1H9.352c1.043-1.107,1.365-1.371,1.963-2.016.416-.445.721-.8.949-1.061a5.129,5.129,0,0,0,.85-1.23,2.78,2.78,0,0,0,.258-1.154,2.308,2.308,0,0,0-.773-1.77,3.075,3.075,0,0,0-2.074-.68,4.642,4.642,0,0,0-1.148.146,6.4,6.4,0,0,0-1.189.434v1.2a6.172,6.172,0,0,1,1.242-.586,3.564,3.564,0,0,1,1.113-.193,1.652,1.652,0,0,1,1.189.416,1.52,1.52,0,0,1,.428,1.137,2.147,2.147,0,0,1-.205.914,5.145,5.145,0,0,1-.8,1.16c-.217.264-.328.387-1.125,1.248-.7.756-1.324,1.418-1.77,1.887a.461.461,0,0,0-.146.363Zm9.926.158a.924.924,0,0,0,.674-.275,1.065,1.065,0,0,0,0-1.43.962.962,0,0,0-1.348,0,1.065,1.065,0,0,0,0,1.43A.924.924,0,0,0,18.041,154.158ZM1.582,167H6.41v-1H4.594v-7.752H3.41l-1.969.434v1.078l1.98-.445V166H1.582Zm8.959.17a3.41,3.41,0,0,0,2.273-.691,2.375,2.375,0,0,0,.8-1.887,2.277,2.277,0,0,0-.457-1.465,2.4,2.4,0,0,0-1.318-.809,2.2,2.2,0,0,0,1.172-.68,1.82,1.82,0,0,0,.4-1.213,2.122,2.122,0,0,0-.756-1.693,3.133,3.133,0,0,0-2.039-.639,5.621,5.621,0,0,0-.99.094q-.554.1-1.266.281v1.09a6.739,6.739,0,0,1,1.166-.352,5.431,5.431,0,0,1,1.061-.117,1.825,1.825,0,0,1,1.23.357,1.292,1.292,0,0,1,.422,1.02,1.216,1.216,0,0,1-.451,1.014,2.02,2.02,0,0,1-1.277.357h-.9v.973h.9a2.128,2.128,0,0,1,1.418.445,1.539,1.539,0,0,1,.516,1.23,1.562,1.562,0,0,1-.521,1.248,2.251,2.251,0,0,1-1.494.439,4.594,4.594,0,0,1-1.154-.152,6.073,6.073,0,0,1-1.178-.48v1.2a8.548,8.548,0,0,0,1.23.322A6.915,6.915,0,0,0,10.541,167.17Zm7.5-.012a.924.924,0,0,0,.674-.275,1.065,1.065,0,0,0,0-1.43.962.962,0,0,0-1.348,0,1.065,1.065,0,0,0,0,1.43A.924.924,0,0,0,18.041,167.158ZM1.582,180H6.41v-1H4.594v-7.752H3.41l-1.969.434v1.078l1.98-.445V179H1.582Zm9.949,0h1.178v-2.086h1.166v-.961H12.709v-5.7H11.338l-3.516,5.543v1.119h3.709Zm-2.76-3.047,2.76-4.623v4.623Zm9.27,3.205a.924.924,0,0,0,.674-.275,1.065,1.065,0,0,0,0-1.43.962.962,0,0,0-1.348,0,1.065,1.065,0,0,0,0,1.43A.924.924,0,0,0,18.041,180.158ZM1.582,193H6.41v-1H4.594v-7.752H3.41l-1.969.434v1.078l1.98-.445V192H1.582Zm8.719.17a3.261,3.261,0,0,0,2.361-.791,3.343,3.343,0,0,0,.035-4.359,2.951,2.951,0,0,0-2.156-.8,2.874,2.874,0,0,0-.516.041,2.756,2.756,0,0,0-.51.141v-2.15h3.352v-1H8.438v4.395a3.906,3.906,0,0,1,.861-.328,4.029,4.029,0,0,1,.9-.105,2.2,2.2,0,0,1,1.553.516,2.269,2.269,0,0,1,.018,2.93,2.093,2.093,0,0,1-1.541.516,4.123,4.123,0,0,1-1.084-.146,5.044,5.044,0,0,1-1.084-.434v1.2a4.842,4.842,0,0,0,1.037.281A7.815,7.815,0,0,0,10.3,193.17Zm7.74-.012a.924.924,0,0,0,.674-.275,1.065,1.065,0,0,0,0-1.43.962.962,0,0,0-1.348,0,1.065,1.065,0,0,0,0,1.43A.924.924,0,0,0,18.041,193.158ZM1.582,206H6.41v-1H4.594v-7.752H3.41l-1.969.434v1.078l1.98-.445V205H1.582Zm9.352.17a2.6,2.6,0,0,0,2.027-.779,3.807,3.807,0,0,0,.018-4.4,2.5,2.5,0,0,0-1.916-.773,2.147,2.147,0,0,0-1.189.311,2.106,2.106,0,0,0-.779.9,4.44,4.44,0,0,1,.58-2.5,1.937,1.937,0,0,1,1.717-.844,3.3,3.3,0,0,1,.855.111,3.2,3.2,0,0,1,.785.334v-1.09a5.033,5.033,0,0,0-.838-.264,4.371,4.371,0,0,0-.879-.088,2.874,2.874,0,0,0-2.461,1.16,5.839,5.839,0,0,0-.85,3.5,6.189,6.189,0,0,0,.715,3.311A2.411,2.411,0,0,0,10.934,206.17Zm0-.926a1.457,1.457,0,0,1-1.2-.539,2.852,2.852,0,0,1,0-3.023,1.461,1.461,0,0,1,1.207-.539,1.391,1.391,0,0,1,1.166.516,3.145,3.145,0,0,1,0,3.064A1.378,1.378,0,0,1,10.934,205.244Zm7.107.914a.924.924,0,0,0,.674-.275,1.065,1.065,0,0,0,0-1.43.962.962,0,0,0-1.348,0,1.065,1.065,0,0,0,0,1.43A.924.924,0,0,0,18.041,206.158ZM1.582,219H6.41v-1H4.594v-7.752H3.41l-1.969.434v1.078l1.98-.445V218H1.582Zm7.6,0h1.236l3.129-8.244v-.5H8.039v1h4.189Zm8.859.158a.924.924,0,0,0,.674-.275,1.065,1.065,0,0,0,0-1.43.962.962,0,0,0-1.348,0,1.065,1.065,0,0,0,0,1.43A.924.924,0,0,0,18.041,219.158Z" transform="translate(23 320)"/><path class="d" d="M.6,12.113H1.717L6.322,2.252H5.209ZM9.24,8.545l1.582-2.092L12.4,8.545l.551-.393L11.537,5.979l2.133-.926-.211-.6-2.2.721-.117-2.49h-.633l-.117,2.49-2.2-.721-.211.6,2.133.926L8.689,8.152ZM.8,37H1.992V32.834h3.24V37H6.422V28.252H5.232v3.586H1.992V28.252H.8Zm10.389.17a4.888,4.888,0,0,0,1.119-.123,7.658,7.658,0,0,0,1.184-.381V35.594a6.9,6.9,0,0,1-1.2.5,3.718,3.718,0,0,1-1.084.164,2.049,2.049,0,0,1-1.57-.586,2.3,2.3,0,0,1-.562-1.658v-.035h4.67v-.527a3.473,3.473,0,0,0-.721-2.326,2.5,2.5,0,0,0-2-.844,2.913,2.913,0,0,0-2.238.938,3.653,3.653,0,0,0-.838,2.514,3.582,3.582,0,0,0,.861,2.525A3.12,3.12,0,0,0,11.191,37.17ZM9.117,33.139a2.355,2.355,0,0,1,.6-1.43A1.708,1.708,0,0,1,11,31.193a1.539,1.539,0,0,1,1.219.492,2.269,2.269,0,0,1,.445,1.447Zm11.508,3.908v-.914h-1.26a.9.9,0,0,1-.785-.369,1.82,1.82,0,0,1-.27-1.1V27.883H15.5v.844h1.729v5.941a2.615,2.615,0,0,0,.533,1.758,1.83,1.83,0,0,0,1.494.621Zm7.225,0v-.914H26.59a.9.9,0,0,1-.785-.369,1.82,1.82,0,0,1-.27-1.1V27.883H22.729v.844h1.729v5.941a2.615,2.615,0,0,0,.533,1.758,1.83,1.83,0,0,0,1.494.621Zm4.658.123a2.543,2.543,0,0,0,2.092-.879,3.976,3.976,0,0,0,.721-2.578,3.954,3.954,0,0,0-.721-2.549,2.523,2.523,0,0,0-2.092-.885,2.531,2.531,0,0,0-2.086.885,3.972,3.972,0,0,0-.721,2.555,4.011,4.011,0,0,0,.721,2.572A2.568,2.568,0,0,0,32.508,37.17Zm0-.914a1.4,1.4,0,0,1-1.242-.645,3.448,3.448,0,0,1-.422-1.887,3.47,3.47,0,0,1,.422-1.893,1.533,1.533,0,0,1,2.49,0,3.47,3.47,0,0,1,.422,1.893,3.448,3.448,0,0,1-.422,1.887A1.4,1.4,0,0,1,32.508,36.256Zm6.229,3.012a3.222,3.222,0,0,0,1.523-1.084,2.837,2.837,0,0,0,.539-1.729,1.914,1.914,0,0,0-.27-1.1.886.886,0,0,0-.773-.4,1.054,1.054,0,0,0-.68.234.854.854,0,0,0-.27.662.825.825,0,0,0,.258.645.916.916,0,0,0,.645.229,1.215,1.215,0,0,0,.234-.023,2.166,2.166,0,0,1-1.477,1.957ZM1.178,63H6.035V62H4.2V55.248H6.035v-1H1.178v1H3.012V62H1.178Zm8.76-5.666h.9l1.154-2.244V53.883H10.512V55.09ZM15.088,63h.979V59.244a4.6,4.6,0,0,1,.176-1.711.577.577,0,0,1,.592-.352.6.6,0,0,1,.592.328,4.661,4.661,0,0,1,.17,1.734V63h.984V59.244a4.485,4.485,0,0,1,.182-1.705.6.6,0,0,1,.615-.357.552.552,0,0,1,.58.334,5.077,5.077,0,0,1,.158,1.729V63H21.1V59.2a5.529,5.529,0,0,0-.322-2.309,1.154,1.154,0,0,0-1.119-.609,1.313,1.313,0,0,0-.738.2,1.466,1.466,0,0,0-.51.627,1.177,1.177,0,0,0-1.2-.826,1.2,1.2,0,0,0-.662.182,1.456,1.456,0,0,0-.486.539l-.094-.562h-.885Zm16.816.17a2.7,2.7,0,0,0,1.266-.281A2.466,2.466,0,0,0,34.131,62c.018.123.053.316.094.486a3.653,3.653,0,0,0,.158.51h1.084a4.165,4.165,0,0,1-.158-.533,6.844,6.844,0,0,1-.135-.791c-.041-.3-.035-.627-.053-1.078V59.256a6.412,6.412,0,0,0-.094-1.295,1.979,1.979,0,0,0-.316-.727,2.311,2.311,0,0,0-.926-.709,3.5,3.5,0,0,0-1.389-.246,5.127,5.127,0,0,0-1.072.111,8.618,8.618,0,0,0-1.148.346v1.078a4.591,4.591,0,0,1,1.1-.463,4.129,4.129,0,0,1,1.119-.158,1.846,1.846,0,0,1,1.248.352,1.512,1.512,0,0,1,.4,1.143v.17H32.59a3.443,3.443,0,0,0-2.156.568,2.229,2.229,0,0,0-.141,3.176A2.218,2.218,0,0,0,31.9,63.17Zm.223-.9a1.422,1.422,0,0,1-1-.328,1.181,1.181,0,0,1-.357-.914,1.112,1.112,0,0,1,.48-1,2.536,2.536,0,0,1,1.418-.328h1.365v.24a2.609,2.609,0,0,1-.516,1.705A1.7,1.7,0,0,1,32.127,62.268ZM46.078,63h1.078V57.275h2.256v-.838H47.156v-.58a1.212,1.212,0,0,1,.229-.844,1.062,1.062,0,0,1,.8-.234h1.225v-.9H48.117a2.061,2.061,0,0,0-1.541.51,2.178,2.178,0,0,0-.5,1.588v.457H44.326v.838h1.752Zm7.623.17a2.282,2.282,0,0,0,1.166-.293,2.071,2.071,0,0,0,.779-.861l.105.984h.979V56.449H55.646v3.709a2.508,2.508,0,0,1-.4,1.535,1.371,1.371,0,0,1-1.166.539,1.122,1.122,0,0,1-.967-.416,2.146,2.146,0,0,1-.316-1.3V56.449H51.715v4.066a3.315,3.315,0,0,0,.492,1.992A1.746,1.746,0,0,0,53.7,63.17Zm10.271-.123v-.914h-1.26a.9.9,0,0,1-.785-.369,1.82,1.82,0,0,1-.27-1.1V53.883H58.852v.844H60.58v5.941a2.615,2.615,0,0,0,.533,1.758,1.83,1.83,0,0,0,1.494.621Zm7.225,0v-.914h-1.26a.9.9,0,0,1-.785-.369,1.82,1.82,0,0,1-.27-1.1V53.883H66.076v.844H67.8v5.941a2.615,2.615,0,0,0,.533,1.758,1.83,1.83,0,0,0,1.494.621Zm2.256-3.088h4.811V59H73.453Zm9.475,3.211a2.983,2.983,0,0,0,1.887-.551,1.806,1.806,0,0,0,.691-1.512,1.693,1.693,0,0,0-.41-1.2,2.09,2.09,0,0,0-1.219-.609l-.434-.082A3.525,3.525,0,0,1,82.1,58.8a.792.792,0,0,1-.27-.65.82.82,0,0,1,.363-.732,2,2,0,0,1,1.066-.234,3.5,3.5,0,0,1,.979.135,4.011,4.011,0,0,1,.932.4V56.666a5.678,5.678,0,0,0-.955-.293,5.228,5.228,0,0,0-1-.094,2.866,2.866,0,0,0-1.834.51,1.75,1.75,0,0,0-.639,1.453,1.59,1.59,0,0,0,.428,1.178,2.6,2.6,0,0,0,1.359.615l.4.082.047.012c.99.205,1.436.527,1.436,1.072a.946.946,0,0,1-.393.773,1.843,1.843,0,0,1-1.107.293,3.785,3.785,0,0,1-1.043-.158,5.93,5.93,0,0,1-1.154-.463V62.76c.416.135.85.246,1.154.311A5.744,5.744,0,0,0,82.928,63.17Zm9.814-.146v-.861H91.529a1.281,1.281,0,0,1-.961-.287,1.478,1.478,0,0,1-.275-1.014V57.275h2.449v-.838H90.293V54.252l-1.078.469v1.717H87.463v.838h1.752v3.586a2.273,2.273,0,0,0,.5,1.676,2.437,2.437,0,0,0,1.711.486Zm4.184.146a2.7,2.7,0,0,0,1.266-.281A2.466,2.466,0,0,0,99.152,62c.018.123.053.316.094.486A3.653,3.653,0,0,0,99.4,63h1.084a4.165,4.165,0,0,1-.158-.533,6.844,6.844,0,0,1-.135-.791c-.041-.3-.035-.627-.053-1.078V59.256a6.412,6.412,0,0,0-.094-1.295,1.979,1.979,0,0,0-.316-.727,2.311,2.311,0,0,0-.926-.709,3.5,3.5,0,0,0-1.389-.246,5.127,5.127,0,0,0-1.072.111,8.618,8.618,0,0,0-1.148.346v1.078a4.591,4.591,0,0,1,1.1-.463,4.129,4.129,0,0,1,1.119-.158,1.846,1.846,0,0,1,1.248.352,1.512,1.512,0,0,1,.4,1.143v.17H97.611a3.443,3.443,0,0,0-2.156.568,2.229,2.229,0,0,0-.141,3.176A2.218,2.218,0,0,0,96.926,63.17Zm.223-.9a1.422,1.422,0,0,1-1-.328,1.181,1.181,0,0,1-.357-.914,1.112,1.112,0,0,1,.48-1,2.536,2.536,0,0,1,1.418-.328h1.365v.24a2.609,2.609,0,0,1-.516,1.705A1.7,1.7,0,0,1,97.148,62.268Zm8.168.9a3.638,3.638,0,0,0,.973-.123,4,4,0,0,0,.891-.381V61.547a2.34,2.34,0,0,1-.826.533,2.571,2.571,0,0,1-.984.176,1.953,1.953,0,0,1-1.582-.662,3.488,3.488,0,0,1,0-3.744,1.912,1.912,0,0,1,1.564-.656,2.711,2.711,0,0,1,.973.17,2.931,2.931,0,0,1,.855.551V56.783a4.234,4.234,0,0,0-.908-.381,3.238,3.238,0,0,0-.949-.123,3.112,3.112,0,0,0-2.355.908,4.17,4.17,0,0,0-.006,5.068A3.111,3.111,0,0,0,105.316,63.17Zm4.377-.17h1.113V60.369l.8-.756L114.035,63h1.318l-2.988-4.09,2.584-2.473h-1.312l-2.83,2.725V53.883h-1.113Zm14.66,0h1.031l1.043-3.6,1.049,3.6h1.031l1.535-6.562h-1.066l-1.143,5.3-.949-3.387h-.92l-.937,3.387-1.143-5.3h-1.066Zm9.656.17a4.888,4.888,0,0,0,1.119-.123,7.658,7.658,0,0,0,1.184-.381V61.594a6.9,6.9,0,0,1-1.2.5,3.718,3.718,0,0,1-1.084.164,2.049,2.049,0,0,1-1.57-.586,2.3,2.3,0,0,1-.562-1.658v-.035h4.67v-.527a3.473,3.473,0,0,0-.721-2.326,2.5,2.5,0,0,0-2-.844,2.913,2.913,0,0,0-2.238.938,3.653,3.653,0,0,0-.838,2.514,3.582,3.582,0,0,0,.861,2.525A3.12,3.12,0,0,0,134.01,63.17Zm-2.074-4.031a2.355,2.355,0,0,1,.6-1.43,1.708,1.708,0,0,1,1.289-.516,1.539,1.539,0,0,1,1.219.492,2.269,2.269,0,0,1,.445,1.447Zm9.293,4.031a2.2,2.2,0,0,0,1.875-.926,5.053,5.053,0,0,0,0-5.062,2.226,2.226,0,0,0-1.852-.9,2.122,2.122,0,0,0-1.061.258,1.739,1.739,0,0,0-.715.738V53.883H138.4V63h.973l.105-.826a1.9,1.9,0,0,0,.721.738A1.97,1.97,0,0,0,141.229,63.17Zm-.152-.914a1.326,1.326,0,0,1-1.2-.645,4.618,4.618,0,0,1,0-3.779,1.318,1.318,0,0,1,1.189-.639,1.293,1.293,0,0,1,1.178.639,4.694,4.694,0,0,1,0,3.785A1.283,1.283,0,0,1,141.076,62.256Zm13.916.914a2.063,2.063,0,0,0,1.037-.258,1.882,1.882,0,0,0,.715-.738l.105.826h.973V53.883h-1.078v3.393a1.812,1.812,0,0,0-.709-.744,2.067,2.067,0,0,0-1.043-.252,2.267,2.267,0,0,0-1.875.908,4.143,4.143,0,0,0-.68,2.52,4.257,4.257,0,0,0,.68,2.537A2.213,2.213,0,0,0,154.992,63.17Zm.152-.914a1.293,1.293,0,0,1-1.172-.639,4.694,4.694,0,0,1,0-3.785,1.293,1.293,0,0,1,1.178-.639,1.318,1.318,0,0,1,1.189.639,4.618,4.618,0,0,1,0,3.779A1.326,1.326,0,0,1,155.145,62.256Zm7.764.914a4.888,4.888,0,0,0,1.119-.123,7.658,7.658,0,0,0,1.184-.381V61.594a6.9,6.9,0,0,1-1.2.5,3.718,3.718,0,0,1-1.084.164,2.049,2.049,0,0,1-1.57-.586,2.3,2.3,0,0,1-.562-1.658v-.035h4.67v-.527a3.473,3.473,0,0,0-.721-2.326,2.5,2.5,0,0,0-2-.844,2.913,2.913,0,0,0-2.238.938,3.653,3.653,0,0,0-.838,2.514,3.582,3.582,0,0,0,.861,2.525A3.12,3.12,0,0,0,162.908,63.17Zm-2.074-4.031a2.355,2.355,0,0,1,.6-1.43,1.708,1.708,0,0,1,1.289-.516,1.539,1.539,0,0,1,1.219.492,2.269,2.269,0,0,1,.445,1.447Zm8.789,4.031a2.983,2.983,0,0,0,1.887-.551,1.806,1.806,0,0,0,.691-1.512,1.693,1.693,0,0,0-.41-1.2,2.09,2.09,0,0,0-1.219-.609l-.434-.082A3.525,3.525,0,0,1,168.8,58.8a.792.792,0,0,1-.27-.65.82.82,0,0,1,.363-.732,2,2,0,0,1,1.066-.234,3.5,3.5,0,0,1,.979.135,4.011,4.011,0,0,1,.932.4V56.666a5.678,5.678,0,0,0-.955-.293,5.228,5.228,0,0,0-1-.094,2.866,2.866,0,0,0-1.834.51,1.75,1.75,0,0,0-.639,1.453,1.59,1.59,0,0,0,.428,1.178,2.6,2.6,0,0,0,1.359.615l.4.082.047.012c.99.205,1.436.527,1.436,1.072a.946.946,0,0,1-.393.773,1.843,1.843,0,0,1-1.107.293,3.785,3.785,0,0,1-1.043-.158,5.93,5.93,0,0,1-1.154-.463V62.76c.416.135.85.246,1.154.311A5.744,5.744,0,0,0,169.623,63.17Zm7.676-7.922a.155.155,0,0,0,.176-.176V54.059a.155.155,0,0,0-.176-.176h-.844a.155.155,0,0,0-.176.176v1.014a.155.155,0,0,0,.176.176Zm2.49,7.8v-.914h-1.26a.9.9,0,0,1-.785-.369,1.82,1.82,0,0,1-.27-1.1v-4.23h-2.514v.844H176.4v3.387a2.615,2.615,0,0,0,.533,1.758,1.83,1.83,0,0,0,1.494.621Zm4.348,2.531a2.624,2.624,0,0,0,2.051-.762,3.231,3.231,0,0,0,.7-2.238V56.461h-.973l-.105.85a1.853,1.853,0,0,0-.715-.779,2.12,2.12,0,0,0-1.061-.252,2.164,2.164,0,0,0-1.846.92,4.77,4.77,0,0,0,0,4.928,2.176,2.176,0,0,0,1.84.92,2.031,2.031,0,0,0,1.078-.27,1.839,1.839,0,0,0,.7-.82v.779a2.309,2.309,0,0,1-.4,1.5,1.5,1.5,0,0,1-1.248.48,3.17,3.17,0,0,1-.885-.129,7.1,7.1,0,0,1-1.043-.4v1.066a6.531,6.531,0,0,0,.973.24A5.783,5.783,0,0,0,184.137,65.578Zm.123-3.428a1.35,1.35,0,0,1-1.2-.639,3.339,3.339,0,0,1-.422-1.84,3.384,3.384,0,0,1,.416-1.852,1.358,1.358,0,0,1,1.2-.627,1.27,1.27,0,0,1,1.16.627,3.487,3.487,0,0,1,.393,1.846,3.544,3.544,0,0,1-.393,1.846A1.268,1.268,0,0,1,184.26,62.15Zm4.723.85h1.078V59.291a2.476,2.476,0,0,1,.41-1.541,1.346,1.346,0,0,1,1.154-.533,1.144,1.144,0,0,1,.979.416,2.191,2.191,0,0,1,.311,1.3V63H194V58.934a3.335,3.335,0,0,0-.492-2A1.76,1.76,0,0,0,192,56.279a2.213,2.213,0,0,0-1.16.287,2.054,2.054,0,0,0-.779.855l-.105-.984h-.973Zm10.049.17a4.888,4.888,0,0,0,1.119-.123,7.658,7.658,0,0,0,1.184-.381V61.594a6.9,6.9,0,0,1-1.2.5,3.718,3.718,0,0,1-1.084.164,2.049,2.049,0,0,1-1.57-.586,2.3,2.3,0,0,1-.562-1.658v-.035h4.67v-.527a3.473,3.473,0,0,0-.721-2.326,2.5,2.5,0,0,0-2-.844,2.913,2.913,0,0,0-2.238.938,3.653,3.653,0,0,0-.838,2.514,3.582,3.582,0,0,0,.861,2.525A3.12,3.12,0,0,0,199.031,63.17Zm-2.074-4.031a2.355,2.355,0,0,1,.6-1.43,1.708,1.708,0,0,1,1.289-.516,1.539,1.539,0,0,1,1.219.492,2.269,2.269,0,0,1,.445,1.447Zm7.1,3.861h1.084V59.736a2.734,2.734,0,0,1,.533-1.828,1.9,1.9,0,0,1,1.535-.633A2.434,2.434,0,0,1,208,57.4a2.214,2.214,0,0,1,.7.393v-1.1a2.274,2.274,0,0,0-.662-.311,2.828,2.828,0,0,0-.75-.1,2.321,2.321,0,0,0-1.318.369,2.263,2.263,0,0,0-.832,1.072l-.105-1.283h-.979Zm9.047.158a.924.924,0,0,0,.674-.275,1.065,1.065,0,0,0,0-1.43.962.962,0,0,0-1.348,0,1.065,1.065,0,0,0,0,1.43A.924.924,0,0,0,213.105,63.158ZM1.178,89H6.035V88H4.2V81.248H6.035v-1H1.178v1H3.012V88H1.178Zm14.414,0H16.67V85.291a2.476,2.476,0,0,1,.41-1.541,1.346,1.346,0,0,1,1.154-.533,1.144,1.144,0,0,1,.979.416,2.191,2.191,0,0,1,.311,1.3V89h1.084V84.934a3.335,3.335,0,0,0-.492-2,1.76,1.76,0,0,0-1.506-.656,2.213,2.213,0,0,0-1.16.287,2.054,2.054,0,0,0-.779.855V79.883H15.592Zm9.088.17a2.7,2.7,0,0,0,1.266-.281A2.466,2.466,0,0,0,26.906,88c.018.123.053.316.094.486a3.653,3.653,0,0,0,.158.51h1.084a4.165,4.165,0,0,1-.158-.533,6.844,6.844,0,0,1-.135-.791c-.041-.3-.035-.627-.053-1.078V85.256a6.412,6.412,0,0,0-.094-1.295,1.979,1.979,0,0,0-.316-.727,2.311,2.311,0,0,0-.926-.709,3.5,3.5,0,0,0-1.389-.246,5.127,5.127,0,0,0-1.072.111,8.618,8.618,0,0,0-1.148.346v1.078a4.591,4.591,0,0,1,1.1-.463,4.129,4.129,0,0,1,1.119-.158,1.846,1.846,0,0,1,1.248.352,1.512,1.512,0,0,1,.4,1.143v.17H25.365a3.443,3.443,0,0,0-2.156.568,2.229,2.229,0,0,0-.141,3.176A2.218,2.218,0,0,0,24.68,89.17Zm.223-.9a1.422,1.422,0,0,1-1-.328,1.181,1.181,0,0,1-.357-.914,1.112,1.112,0,0,1,.48-1,2.536,2.536,0,0,1,1.418-.328h1.365v.24a2.609,2.609,0,0,1-.516,1.705A1.7,1.7,0,0,1,24.9,88.268ZM31.816,89h1.389l2.332-6.562H34.418l-1.91,5.508-1.9-5.508H29.484Zm8.273.17a4.888,4.888,0,0,0,1.119-.123,7.658,7.658,0,0,0,1.184-.381V87.594a6.9,6.9,0,0,1-1.2.5,3.718,3.718,0,0,1-1.084.164,2.049,2.049,0,0,1-1.57-.586,2.3,2.3,0,0,1-.562-1.658v-.035h4.67v-.527a3.473,3.473,0,0,0-.721-2.326,2.5,2.5,0,0,0-2-.844,2.913,2.913,0,0,0-2.238.938,3.653,3.653,0,0,0-.838,2.514,3.582,3.582,0,0,0,.861,2.525A3.12,3.12,0,0,0,40.09,89.17Zm-2.074-4.031a2.355,2.355,0,0,1,.6-1.43,1.708,1.708,0,0,1,1.289-.516,1.539,1.539,0,0,1,1.219.492,2.269,2.269,0,0,1,.445,1.447ZM53.578,89.17a2.7,2.7,0,0,0,1.266-.281A2.466,2.466,0,0,0,55.8,88c.018.123.053.316.094.486a3.653,3.653,0,0,0,.158.51h1.084a4.165,4.165,0,0,1-.158-.533,6.844,6.844,0,0,1-.135-.791c-.041-.3-.035-.627-.053-1.078V85.256a6.412,6.412,0,0,0-.094-1.295,1.979,1.979,0,0,0-.316-.727,2.311,2.311,0,0,0-.926-.709,3.5,3.5,0,0,0-1.389-.246A5.127,5.127,0,0,0,53,82.391a8.618,8.618,0,0,0-1.148.346v1.078a4.591,4.591,0,0,1,1.1-.463,4.129,4.129,0,0,1,1.119-.158,1.846,1.846,0,0,1,1.248.352,1.512,1.512,0,0,1,.4,1.143v.17H54.264a3.443,3.443,0,0,0-2.156.568,2.229,2.229,0,0,0-.141,3.176A2.218,2.218,0,0,0,53.578,89.17Zm.223-.9a1.422,1.422,0,0,1-1-.328,1.181,1.181,0,0,1-.357-.914,1.112,1.112,0,0,1,.48-1,2.536,2.536,0,0,1,1.418-.328h1.365v.24a2.609,2.609,0,0,1-.516,1.705A1.7,1.7,0,0,1,53.8,88.268Zm10.172.779v-.914h-1.26a.9.9,0,0,1-.785-.369,1.82,1.82,0,0,1-.27-1.1V79.883H58.852v.844H60.58v5.941a2.615,2.615,0,0,0,.533,1.758,1.83,1.83,0,0,0,1.494.621ZM65.66,89h.979V85.244a4.6,4.6,0,0,1,.176-1.711.577.577,0,0,1,.592-.352A.6.6,0,0,1,68,83.51a4.661,4.661,0,0,1,.17,1.734V89h.984V85.244a4.485,4.485,0,0,1,.182-1.705.6.6,0,0,1,.615-.357.552.552,0,0,1,.58.334,5.077,5.077,0,0,1,.158,1.729V89h.984V85.2a5.529,5.529,0,0,0-.322-2.309,1.154,1.154,0,0,0-1.119-.609,1.313,1.313,0,0,0-.738.2,1.466,1.466,0,0,0-.51.627,1.177,1.177,0,0,0-1.2-.826,1.2,1.2,0,0,0-.662.182,1.456,1.456,0,0,0-.486.539l-.094-.562H65.66Zm10.2.17a2.543,2.543,0,0,0,2.092-.879,4.919,4.919,0,0,0,0-5.127,2.908,2.908,0,0,0-4.178,0,4.919,4.919,0,0,0,0,5.127A2.568,2.568,0,0,0,75.855,89.17Zm0-.914a1.4,1.4,0,0,1-1.242-.645,4.443,4.443,0,0,1,0-3.779,1.533,1.533,0,0,1,2.49,0,4.443,4.443,0,0,1,0,3.779A1.4,1.4,0,0,1,75.855,88.256Zm7.072.914a2.983,2.983,0,0,0,1.887-.551,1.806,1.806,0,0,0,.691-1.512,1.693,1.693,0,0,0-.41-1.2,2.09,2.09,0,0,0-1.219-.609l-.434-.082A3.525,3.525,0,0,1,82.1,84.8a.792.792,0,0,1-.27-.65.82.82,0,0,1,.363-.732,2,2,0,0,1,1.066-.234,3.5,3.5,0,0,1,.979.135,4.011,4.011,0,0,1,.932.4V82.666a5.678,5.678,0,0,0-.955-.293,5.228,5.228,0,0,0-1-.094,2.866,2.866,0,0,0-1.834.51,1.75,1.75,0,0,0-.639,1.453,1.59,1.59,0,0,0,.428,1.178,2.6,2.6,0,0,0,1.359.615l.4.082.047.012c.99.205,1.436.527,1.436,1.072a.946.946,0,0,1-.393.773,1.843,1.843,0,0,1-1.107.293,3.785,3.785,0,0,1-1.043-.158,5.93,5.93,0,0,1-1.154-.463V88.76c.416.135.85.246,1.154.311A5.744,5.744,0,0,0,82.928,89.17Zm9.814-.146v-.861H91.529a1.281,1.281,0,0,1-.961-.287,1.478,1.478,0,0,1-.275-1.014V83.275h2.449v-.838H90.293V80.252l-1.078.469v1.717H87.463v.838h1.752v3.586a2.273,2.273,0,0,0,.5,1.676,2.437,2.437,0,0,0,1.711.486Zm11.408.146a2.7,2.7,0,0,0,1.266-.281,2.466,2.466,0,0,0,.961-.885c.018.123.053.316.094.486a3.653,3.653,0,0,0,.158.51h1.084a4.165,4.165,0,0,1-.158-.533,6.844,6.844,0,0,1-.135-.791c-.041-.3-.035-.627-.053-1.078V85.256a6.412,6.412,0,0,0-.094-1.295,1.979,1.979,0,0,0-.316-.727,2.311,2.311,0,0,0-.926-.709,3.5,3.5,0,0,0-1.389-.246,5.127,5.127,0,0,0-1.072.111,8.618,8.618,0,0,0-1.148.346v1.078a4.591,4.591,0,0,1,1.1-.463,4.129,4.129,0,0,1,1.119-.158,1.846,1.846,0,0,1,1.248.352,1.512,1.512,0,0,1,.4,1.143v.17h-1.447a3.443,3.443,0,0,0-2.156.568,2.229,2.229,0,0,0-.141,3.176A2.218,2.218,0,0,0,104.15,89.17Zm.223-.9a1.422,1.422,0,0,1-1-.328,1.181,1.181,0,0,1-.357-.914,1.112,1.112,0,0,1,.48-1,2.536,2.536,0,0,1,1.418-.328h1.365v.24a2.609,2.609,0,0,1-.516,1.705A1.7,1.7,0,0,1,104.373,88.268Zm14.5.9a2.063,2.063,0,0,0,1.037-.258,1.882,1.882,0,0,0,.715-.738l.105.826h.973V79.883h-1.078v3.393a1.812,1.812,0,0,0-.709-.744,2.067,2.067,0,0,0-1.043-.252,2.267,2.267,0,0,0-1.875.908,4.143,4.143,0,0,0-.68,2.52,4.257,4.257,0,0,0,.68,2.537A2.213,2.213,0,0,0,118.869,89.17Zm.152-.914a1.293,1.293,0,0,1-1.172-.639,4.694,4.694,0,0,1,0-3.785,1.293,1.293,0,0,1,1.178-.639,1.318,1.318,0,0,1,1.189.639,4.618,4.618,0,0,1,0,3.779A1.326,1.326,0,0,1,119.021,88.256Zm7.764.914a4.888,4.888,0,0,0,1.119-.123,7.658,7.658,0,0,0,1.184-.381V87.594a6.9,6.9,0,0,1-1.2.5,3.718,3.718,0,0,1-1.084.164,2.049,2.049,0,0,1-1.57-.586,2.3,2.3,0,0,1-.562-1.658v-.035h4.67v-.527a3.473,3.473,0,0,0-.721-2.326,2.5,2.5,0,0,0-2-.844,2.913,2.913,0,0,0-2.238.938,3.653,3.653,0,0,0-.838,2.514,3.582,3.582,0,0,0,.861,2.525A3.12,3.12,0,0,0,126.785,89.17Zm-2.074-4.031a2.355,2.355,0,0,1,.6-1.43,1.708,1.708,0,0,1,1.289-.516,1.539,1.539,0,0,1,1.219.492,2.269,2.269,0,0,1,.445,1.447Zm9.5,4.031a3.638,3.638,0,0,0,.973-.123,4,4,0,0,0,.891-.381V87.547a2.34,2.34,0,0,1-.826.533,2.571,2.571,0,0,1-.984.176,1.953,1.953,0,0,1-1.582-.662,3.488,3.488,0,0,1,0-3.744,1.912,1.912,0,0,1,1.564-.656,2.711,2.711,0,0,1,.973.17,2.931,2.931,0,0,1,.855.551V82.783a4.234,4.234,0,0,0-.908-.381,3.238,3.238,0,0,0-.949-.123,3.112,3.112,0,0,0-2.355.908,4.17,4.17,0,0,0-.006,5.068A3.111,3.111,0,0,0,134.215,89.17Zm6.059,0a2.7,2.7,0,0,0,1.266-.281A2.466,2.466,0,0,0,142.5,88c.018.123.053.316.094.486a3.653,3.653,0,0,0,.158.51h1.084a4.165,4.165,0,0,1-.158-.533,6.844,6.844,0,0,1-.135-.791c-.041-.3-.035-.627-.053-1.078V85.256a6.412,6.412,0,0,0-.094-1.295,1.979,1.979,0,0,0-.316-.727,2.311,2.311,0,0,0-.926-.709,3.5,3.5,0,0,0-1.389-.246,5.127,5.127,0,0,0-1.072.111,8.618,8.618,0,0,0-1.148.346v1.078a4.591,4.591,0,0,1,1.1-.463,4.129,4.129,0,0,1,1.119-.158,1.846,1.846,0,0,1,1.248.352,1.512,1.512,0,0,1,.4,1.143v.17h-1.447a3.443,3.443,0,0,0-2.156.568,2.229,2.229,0,0,0-.141,3.176A2.218,2.218,0,0,0,140.273,89.17Zm.223-.9a1.422,1.422,0,0,1-1-.328,1.181,1.181,0,0,1-.357-.914,1.112,1.112,0,0,1,.48-1,2.536,2.536,0,0,1,1.418-.328h1.365v.24a2.609,2.609,0,0,1-.516,1.705A1.7,1.7,0,0,1,140.5,88.268Zm7.271.9a2.063,2.063,0,0,0,1.037-.258,1.882,1.882,0,0,0,.715-.738l.105.826h.973V79.883H149.52v3.393a1.812,1.812,0,0,0-.709-.744,2.067,2.067,0,0,0-1.043-.252,2.267,2.267,0,0,0-1.875.908,4.143,4.143,0,0,0-.68,2.52,4.257,4.257,0,0,0,.68,2.537A2.213,2.213,0,0,0,147.768,89.17Zm.152-.914a1.293,1.293,0,0,1-1.172-.639,4.694,4.694,0,0,1,0-3.785,1.293,1.293,0,0,1,1.178-.639,1.318,1.318,0,0,1,1.189.639,4.618,4.618,0,0,1,0,3.779A1.326,1.326,0,0,1,147.92,88.256Zm7.764.914a4.888,4.888,0,0,0,1.119-.123,7.658,7.658,0,0,0,1.184-.381V87.594a6.9,6.9,0,0,1-1.2.5,3.718,3.718,0,0,1-1.084.164,2.049,2.049,0,0,1-1.57-.586,2.3,2.3,0,0,1-.562-1.658v-.035h4.67v-.527a3.473,3.473,0,0,0-.721-2.326,2.5,2.5,0,0,0-2-.844,2.913,2.913,0,0,0-2.238.938,3.653,3.653,0,0,0-.838,2.514,3.582,3.582,0,0,0,.861,2.525A3.12,3.12,0,0,0,155.684,89.17Zm-2.074-4.031a2.355,2.355,0,0,1,.6-1.43,1.708,1.708,0,0,1,1.289-.516,1.539,1.539,0,0,1,1.219.492,2.269,2.269,0,0,1,.445,1.447Zm16.166,4.031a2.543,2.543,0,0,0,2.092-.879,4.919,4.919,0,0,0,0-5.127,2.908,2.908,0,0,0-4.178,0,4.919,4.919,0,0,0,0,5.127A2.568,2.568,0,0,0,169.775,89.17Zm0-.914a1.4,1.4,0,0,1-1.242-.645,4.443,4.443,0,0,1,0-3.779,1.533,1.533,0,0,1,2.49,0,4.443,4.443,0,0,1,0,3.779A1.4,1.4,0,0,1,169.775,88.256Zm6.346.744H177.2V83.275h2.256v-.838H177.2v-.58a1.212,1.212,0,0,1,.229-.844,1.062,1.062,0,0,1,.8-.234h1.225v-.9H178.16a2.061,2.061,0,0,0-1.541.51,2.178,2.178,0,0,0-.5,1.588v.457h-1.752v.838h1.752ZM3.967,102.17a4.888,4.888,0,0,0,1.119-.123,7.658,7.658,0,0,0,1.184-.381v-1.072a6.9,6.9,0,0,1-1.2.5,3.718,3.718,0,0,1-1.084.164,2.049,2.049,0,0,1-1.57-.586,2.3,2.3,0,0,1-.562-1.658v-.035h4.67v-.527A3.473,3.473,0,0,0,5.8,96.123a2.5,2.5,0,0,0-2-.844,2.913,2.913,0,0,0-2.238.938A3.653,3.653,0,0,0,.727,98.73a3.582,3.582,0,0,0,.861,2.525A3.12,3.12,0,0,0,3.967,102.17ZM1.893,98.139a2.355,2.355,0,0,1,.6-1.43,1.708,1.708,0,0,1,1.289-.516A1.539,1.539,0,0,1,5,96.686a2.269,2.269,0,0,1,.445,1.447ZM7.67,102H8.918l1.916-2.631L12.756,102H14l-2.578-3.422,2.35-3.141H12.563l-1.729,2.373-1.74-2.373H7.9l2.35,3.141Zm7.893,2.5h1.084v-3.322a1.831,1.831,0,0,0,.709.738,1.976,1.976,0,0,0,1.043.258,2.191,2.191,0,0,0,1.863-.914,4.139,4.139,0,0,0,.68-2.52,4.22,4.22,0,0,0-.674-2.537,2.2,2.2,0,0,0-1.863-.92,2.06,2.06,0,0,0-1.037.252,1.877,1.877,0,0,0-.721.744l-.105-.838h-.979Zm2.678-3.24a1.323,1.323,0,0,1-1.189-.645,4.618,4.618,0,0,1,0-3.779,1.318,1.318,0,0,1,1.189-.639,1.293,1.293,0,0,1,1.178.639,4.758,4.758,0,0,1,0,3.785A1.293,1.293,0,0,1,18.24,101.256Zm7.4.914a4.888,4.888,0,0,0,1.119-.123,7.658,7.658,0,0,0,1.184-.381v-1.072a6.9,6.9,0,0,1-1.2.5,3.718,3.718,0,0,1-1.084.164,2.049,2.049,0,0,1-1.57-.586,2.3,2.3,0,0,1-.562-1.658v-.035H28.2v-.527a3.473,3.473,0,0,0-.721-2.326,2.5,2.5,0,0,0-2-.844,2.913,2.913,0,0,0-2.238.938A3.653,3.653,0,0,0,22.4,98.73a3.582,3.582,0,0,0,.861,2.525A3.12,3.12,0,0,0,25.641,102.17Zm-2.074-4.031a2.355,2.355,0,0,1,.6-1.43,1.708,1.708,0,0,1,1.289-.516,1.539,1.539,0,0,1,1.219.492,2.269,2.269,0,0,1,.445,1.447Zm7.1,3.861h1.084V98.736a2.734,2.734,0,0,1,.533-1.828,1.9,1.9,0,0,1,1.535-.633,2.434,2.434,0,0,1,.791.123,2.214,2.214,0,0,1,.7.393v-1.1a2.274,2.274,0,0,0-.662-.311,2.828,2.828,0,0,0-.75-.1,2.321,2.321,0,0,0-1.318.369,2.263,2.263,0,0,0-.832,1.072l-.105-1.283h-.979Zm9.363-7.752a.155.155,0,0,0,.176-.176V93.059a.155.155,0,0,0-.176-.176h-.844a.155.155,0,0,0-.176.176v1.014a.155.155,0,0,0,.176.176Zm2.49,7.8v-.914h-1.26a.9.9,0,0,1-.785-.369,1.82,1.82,0,0,1-.27-1.1v-4.23H37.693v.844h1.436v3.387a2.615,2.615,0,0,0,.533,1.758,1.83,1.83,0,0,0,1.494.621Zm4.793.123a4.888,4.888,0,0,0,1.119-.123,7.658,7.658,0,0,0,1.184-.381v-1.072a6.9,6.9,0,0,1-1.2.5,3.718,3.718,0,0,1-1.084.164,2.049,2.049,0,0,1-1.57-.586,2.3,2.3,0,0,1-.562-1.658v-.035h4.67v-.527a3.473,3.473,0,0,0-.721-2.326,2.5,2.5,0,0,0-2-.844,2.913,2.913,0,0,0-2.238.938,3.653,3.653,0,0,0-.838,2.514,3.582,3.582,0,0,0,.861,2.525A3.12,3.12,0,0,0,47.314,102.17ZM45.24,98.139a2.355,2.355,0,0,1,.6-1.43,1.708,1.708,0,0,1,1.289-.516,1.539,1.539,0,0,1,1.219.492,2.269,2.269,0,0,1,.445,1.447ZM51.715,102h1.078V98.291a2.476,2.476,0,0,1,.41-1.541,1.346,1.346,0,0,1,1.154-.533,1.144,1.144,0,0,1,.979.416,2.191,2.191,0,0,1,.311,1.3V102H56.73V97.934a3.335,3.335,0,0,0-.492-2,1.76,1.76,0,0,0-1.506-.656,2.213,2.213,0,0,0-1.16.287,2.054,2.054,0,0,0-.779.855l-.105-.984h-.973Zm10.254.17a3.638,3.638,0,0,0,.973-.123,4,4,0,0,0,.891-.381v-1.119a2.34,2.34,0,0,1-.826.533,2.571,2.571,0,0,1-.984.176,1.953,1.953,0,0,1-1.582-.662,3.488,3.488,0,0,1,0-3.744A1.912,1.912,0,0,1,62,96.193a2.711,2.711,0,0,1,.973.17,2.931,2.931,0,0,1,.855.551V95.783a4.234,4.234,0,0,0-.908-.381,3.238,3.238,0,0,0-.949-.123,3.112,3.112,0,0,0-2.355.908,4.17,4.17,0,0,0-.006,5.068A3.111,3.111,0,0,0,61.969,102.17Zm7.02,0a4.888,4.888,0,0,0,1.119-.123,7.658,7.658,0,0,0,1.184-.381v-1.072a6.9,6.9,0,0,1-1.2.5,3.718,3.718,0,0,1-1.084.164,2.049,2.049,0,0,1-1.57-.586,2.3,2.3,0,0,1-.562-1.658v-.035h4.67v-.527a3.473,3.473,0,0,0-.721-2.326,2.5,2.5,0,0,0-2-.844,2.913,2.913,0,0,0-2.238.938,3.653,3.653,0,0,0-.838,2.514,3.582,3.582,0,0,0,.861,2.525A3.12,3.12,0,0,0,68.988,102.17Zm-2.074-4.031a2.355,2.355,0,0,1,.6-1.43,1.708,1.708,0,0,1,1.289-.516,1.539,1.539,0,0,1,1.219.492,2.269,2.269,0,0,1,.445,1.447Zm8.924,4.02a.924.924,0,0,0,.674-.275,1.065,1.065,0,0,0,0-1.43.962.962,0,0,0-1.348,0,1.065,1.065,0,0,0,0,1.43A.924.924,0,0,0,75.838,102.158ZM1.178,128H6.035v-1H4.2v-6.756H6.035v-1H1.178v1H3.012V127H1.178Zm8.777,0h1.078v-5.725h2.256v-.838H11.033v-.58a1.212,1.212,0,0,1,.229-.844,1.062,1.062,0,0,1,.8-.234h1.225v-.9H11.994a2.061,2.061,0,0,0-1.541.51,2.178,2.178,0,0,0-.5,1.588v.457H8.2v.838H9.955Zm12.8,2.5h.867a1.89,1.89,0,0,0,.943-.229,1.716,1.716,0,0,0,.674-.7,15.312,15.312,0,0,0,.779-1.875c.375-1.037.129-.363.686-1.8l1.729-4.453H27.287l-1.916,5.133-1.945-5.133H22.283l2.537,6.457a4.573,4.573,0,0,1-.686,1.424,1,1,0,0,1-.744.275h-.639Zm9.756-2.326a2.543,2.543,0,0,0,2.092-.879,4.919,4.919,0,0,0,0-5.127,2.523,2.523,0,0,0-2.092-.885,2.531,2.531,0,0,0-2.086.885,4.919,4.919,0,0,0,0,5.127A2.568,2.568,0,0,0,32.508,128.17Zm0-.914a1.4,1.4,0,0,1-1.242-.645,4.443,4.443,0,0,1,0-3.779,1.533,1.533,0,0,1,2.49,0,4.443,4.443,0,0,1,0,3.779A1.4,1.4,0,0,1,32.508,127.256Zm6.744.914a2.282,2.282,0,0,0,1.166-.293,2.071,2.071,0,0,0,.779-.861L41.3,128h.979v-6.551H41.2v3.709a2.508,2.508,0,0,1-.4,1.535,1.371,1.371,0,0,1-1.166.539,1.122,1.122,0,0,1-.967-.416,2.146,2.146,0,0,1-.316-1.3v-4.066H37.266v4.066a3.315,3.315,0,0,0,.492,1.992A1.746,1.746,0,0,0,39.252,128.17Zm14.777,0a2.983,2.983,0,0,0,1.887-.551,1.806,1.806,0,0,0,.691-1.512,1.693,1.693,0,0,0-.41-1.2,2.09,2.09,0,0,0-1.219-.609l-.434-.082A3.525,3.525,0,0,1,53.2,123.8a.792.792,0,0,1-.27-.65.82.82,0,0,1,.363-.732,2,2,0,0,1,1.066-.234,3.5,3.5,0,0,1,.979.135,4.011,4.011,0,0,1,.932.4v-1.055a5.678,5.678,0,0,0-.955-.293,5.228,5.228,0,0,0-1-.094,2.866,2.866,0,0,0-1.834.51,1.75,1.75,0,0,0-.639,1.453,1.59,1.59,0,0,0,.428,1.178,2.6,2.6,0,0,0,1.359.615l.4.082.047.012c.99.205,1.436.527,1.436,1.072a.946.946,0,0,1-.393.773,1.843,1.843,0,0,1-1.107.293,3.785,3.785,0,0,1-1.043-.158,5.93,5.93,0,0,1-1.154-.463v1.113c.416.135.85.246,1.154.311A5.744,5.744,0,0,0,54.029,128.17Zm7.939,0a3.638,3.638,0,0,0,.973-.123,4,4,0,0,0,.891-.381v-1.119a2.34,2.34,0,0,1-.826.533,2.571,2.571,0,0,1-.984.176,1.953,1.953,0,0,1-1.582-.662,3.488,3.488,0,0,1,0-3.744A1.912,1.912,0,0,1,62,122.193a2.711,2.711,0,0,1,.973.17,2.931,2.931,0,0,1,.855.551v-1.131a4.234,4.234,0,0,0-.908-.381,3.238,3.238,0,0,0-.949-.123,3.112,3.112,0,0,0-2.355.908,4.17,4.17,0,0,0-.006,5.068A3.111,3.111,0,0,0,61.969,128.17Zm4.822-.17h1.084v-3.264a2.734,2.734,0,0,1,.533-1.828,1.9,1.9,0,0,1,1.535-.633,2.434,2.434,0,0,1,.791.123,2.214,2.214,0,0,1,.7.393v-1.1a2.274,2.274,0,0,0-.662-.311,2.828,2.828,0,0,0-.75-.1,2.321,2.321,0,0,0-1.318.369,2.263,2.263,0,0,0-.832,1.072l-.105-1.283h-.979Zm9.064.17a2.543,2.543,0,0,0,2.092-.879,4.919,4.919,0,0,0,0-5.127,2.908,2.908,0,0,0-4.178,0,4.919,4.919,0,0,0,0,5.127A2.568,2.568,0,0,0,75.855,128.17Zm0-.914a1.4,1.4,0,0,1-1.242-.645,4.443,4.443,0,0,1,0-3.779,1.533,1.533,0,0,1,2.49,0,4.443,4.443,0,0,1,0,3.779A1.4,1.4,0,0,1,75.855,127.256Zm9.791.791v-.914h-1.26a.9.9,0,0,1-.785-.369,1.82,1.82,0,0,1-.27-1.1v-6.785H80.525v.844h1.729v5.941a2.615,2.615,0,0,0,.533,1.758,1.83,1.83,0,0,0,1.494.621Zm7.225,0v-.914h-1.26a.9.9,0,0,1-.785-.369,1.82,1.82,0,0,1-.27-1.1v-6.785H87.75v.844h1.729v5.941a2.615,2.615,0,0,0,.533,1.758,1.83,1.83,0,0,0,1.494.621Zm11.549.123a2.063,2.063,0,0,0,1.037-.258,1.882,1.882,0,0,0,.715-.738l.105.826h.973v-9.117h-1.078v3.393a1.812,1.812,0,0,0-.709-.744,2.067,2.067,0,0,0-1.043-.252,2.267,2.267,0,0,0-1.875.908,4.143,4.143,0,0,0-.68,2.52,4.257,4.257,0,0,0,.68,2.537A2.213,2.213,0,0,0,104.42,128.17Zm.152-.914a1.293,1.293,0,0,1-1.172-.639,4.694,4.694,0,0,1,0-3.785,1.293,1.293,0,0,1,1.178-.639,1.318,1.318,0,0,1,1.189.639,4.618,4.618,0,0,1,0,3.779A1.326,1.326,0,0,1,104.572,127.256Zm7.406.914a2.543,2.543,0,0,0,2.092-.879,4.919,4.919,0,0,0,0-5.127,2.908,2.908,0,0,0-4.178,0,4.919,4.919,0,0,0,0,5.127A2.568,2.568,0,0,0,111.979,128.17Zm0-.914a1.4,1.4,0,0,1-1.242-.645,4.443,4.443,0,0,1,0-3.779,1.533,1.533,0,0,1,2.49,0,4.443,4.443,0,0,1,0,3.779A1.4,1.4,0,0,1,111.979,127.256Zm5.15.744h1.031l1.043-3.6,1.049,3.6h1.031l1.535-6.562h-1.066l-1.143,5.3-.949-3.387h-.92l-.937,3.387-1.143-5.3h-1.066Zm6.832,0h1.078v-3.709a2.476,2.476,0,0,1,.41-1.541,1.346,1.346,0,0,1,1.154-.533,1.144,1.144,0,0,1,.979.416,2.191,2.191,0,0,1,.311,1.3V128h1.084v-4.066a3.335,3.335,0,0,0-.492-2,1.76,1.76,0,0,0-1.506-.656,2.213,2.213,0,0,0-1.16.287,2.054,2.054,0,0,0-.779.855l-.105-.984h-.973Zm8.7,2.268a3.222,3.222,0,0,0,1.523-1.084,2.837,2.837,0,0,0,.539-1.729,1.914,1.914,0,0,0-.27-1.1.886.886,0,0,0-.773-.4,1.054,1.054,0,0,0-.68.234.854.854,0,0,0-.27.662.825.825,0,0,0,.258.645.916.916,0,0,0,.645.229,1.215,1.215,0,0,0,.234-.023,2.166,2.166,0,0,1-1.477,1.957Zm12.914.229h.867a1.89,1.89,0,0,0,.943-.229,1.716,1.716,0,0,0,.674-.7,15.312,15.312,0,0,0,.779-1.875c.375-1.037.129-.363.686-1.8l1.729-4.453h-1.143l-1.916,5.133-1.945-5.133H145.1l2.537,6.457a4.573,4.573,0,0,1-.686,1.424,1,1,0,0,1-.744.275h-.639Zm9.756-2.326a2.543,2.543,0,0,0,2.092-.879,4.919,4.919,0,0,0,0-5.127,2.908,2.908,0,0,0-4.178,0,4.919,4.919,0,0,0,0,5.127A2.568,2.568,0,0,0,155.326,128.17Zm0-.914a1.4,1.4,0,0,1-1.242-.645,4.443,4.443,0,0,1,0-3.779,1.533,1.533,0,0,1,2.49,0,4.443,4.443,0,0,1,0,3.779A1.4,1.4,0,0,1,155.326,127.256Zm6.744.914a2.282,2.282,0,0,0,1.166-.293,2.071,2.071,0,0,0,.779-.861l.105.984h.979v-6.551h-1.084v3.709a2.508,2.508,0,0,1-.4,1.535,1.371,1.371,0,0,1-1.166.539,1.122,1.122,0,0,1-.967-.416,2.146,2.146,0,0,1-.316-1.3v-4.066h-1.078v4.066a3.315,3.315,0,0,0,.492,1.992A1.746,1.746,0,0,0,162.07,128.17Zm15.492,0a3.638,3.638,0,0,0,.973-.123,4,4,0,0,0,.891-.381v-1.119a2.34,2.34,0,0,1-.826.533,2.571,2.571,0,0,1-.984.176,1.953,1.953,0,0,1-1.582-.662,3.488,3.488,0,0,1,0-3.744,1.912,1.912,0,0,1,1.564-.656,2.711,2.711,0,0,1,.973.17,2.931,2.931,0,0,1,.855.551v-1.131a4.234,4.234,0,0,0-.908-.381,3.238,3.238,0,0,0-.949-.123,3.112,3.112,0,0,0-2.355.908,4.17,4.17,0,0,0-.006,5.068A3.111,3.111,0,0,0,177.563,128.17Zm6.059,0a2.7,2.7,0,0,0,1.266-.281,2.466,2.466,0,0,0,.961-.885c.018.123.053.316.094.486a3.653,3.653,0,0,0,.158.51h1.084a4.165,4.165,0,0,1-.158-.533,6.844,6.844,0,0,1-.135-.791c-.041-.3-.035-.627-.053-1.078v-1.342a6.412,6.412,0,0,0-.094-1.295,1.979,1.979,0,0,0-.316-.727,2.311,2.311,0,0,0-.926-.709,3.5,3.5,0,0,0-1.389-.246,5.127,5.127,0,0,0-1.072.111,8.618,8.618,0,0,0-1.148.346v1.078a4.591,4.591,0,0,1,1.1-.463,4.129,4.129,0,0,1,1.119-.158,1.846,1.846,0,0,1,1.248.352,1.512,1.512,0,0,1,.4,1.143v.17h-1.447a3.443,3.443,0,0,0-2.156.568,2.229,2.229,0,0,0-.141,3.176A2.218,2.218,0,0,0,183.621,128.17Zm.223-.9a1.422,1.422,0,0,1-1-.328,1.181,1.181,0,0,1-.357-.914,1.112,1.112,0,0,1,.48-1,2.536,2.536,0,0,1,1.418-.328h1.365v.24a2.609,2.609,0,0,1-.516,1.705A1.7,1.7,0,0,1,183.844,127.268Zm5.139.732h1.078v-3.709a2.476,2.476,0,0,1,.41-1.541,1.346,1.346,0,0,1,1.154-.533,1.144,1.144,0,0,1,.979.416,2.191,2.191,0,0,1,.311,1.3V128H194v-4.066a3.335,3.335,0,0,0-.492-2,1.76,1.76,0,0,0-1.506-.656,2.213,2.213,0,0,0-1.16.287,2.054,2.054,0,0,0-.779.855l-.105-.984h-.973Zm16.037,0H206.1v-5.725h2.256v-.838H206.1v-.58a1.212,1.212,0,0,1,.229-.844,1.062,1.062,0,0,1,.8-.234h1.225v-.9h-1.295a2.061,2.061,0,0,0-1.541.51,2.178,2.178,0,0,0-.5,1.588v.457h-1.752v.838h1.752Zm8.4-7.752a.155.155,0,0,0,.176-.176v-1.014a.155.155,0,0,0-.176-.176h-.844a.155.155,0,0,0-.176.176v1.014a.155.155,0,0,0,.176.176Zm2.49,7.8v-.914h-1.26a.9.9,0,0,1-.785-.369,1.82,1.82,0,0,1-.27-1.1v-4.23h-2.514v.844h1.436v3.387a2.615,2.615,0,0,0,.533,1.758,1.83,1.83,0,0,0,1.494.621Zm1.969-.047h1.078v-3.709a2.476,2.476,0,0,1,.41-1.541,1.346,1.346,0,0,1,1.154-.533,1.144,1.144,0,0,1,.979.416,2.191,2.191,0,0,1,.311,1.3V128H222.9v-4.066a3.335,3.335,0,0,0-.492-2,1.76,1.76,0,0,0-1.506-.656,2.213,2.213,0,0,0-1.16.287,2.054,2.054,0,0,0-.779.855l-.105-.984h-.973Zm9.357.17a2.063,2.063,0,0,0,1.037-.258,1.882,1.882,0,0,0,.715-.738l.105.826h.973v-9.117H228.99v3.393a1.812,1.812,0,0,0-.709-.744,2.067,2.067,0,0,0-1.043-.252,2.267,2.267,0,0,0-1.875.908,4.143,4.143,0,0,0-.68,2.52,4.257,4.257,0,0,0,.68,2.537A2.213,2.213,0,0,0,227.238,128.17Zm.152-.914a1.293,1.293,0,0,1-1.172-.639,4.694,4.694,0,0,1,0-3.785,1.293,1.293,0,0,1,1.178-.639,1.318,1.318,0,0,1,1.189.639,4.618,4.618,0,0,1,0,3.779A1.326,1.326,0,0,1,227.391,127.256ZM3.609,141.17a2.543,2.543,0,0,0,2.092-.879,4.919,4.919,0,0,0,0-5.127,2.523,2.523,0,0,0-2.092-.885,2.531,2.531,0,0,0-2.086.885,4.919,4.919,0,0,0,0,5.127A2.568,2.568,0,0,0,3.609,141.17Zm0-.914a1.4,1.4,0,0,1-1.242-.645,4.443,4.443,0,0,1,0-3.779,1.392,1.392,0,0,1,1.242-.639,1.4,1.4,0,0,1,1.248.639,3.47,3.47,0,0,1,.422,1.893,3.448,3.448,0,0,1-.422,1.887A1.4,1.4,0,0,1,3.609,140.256Zm6.744.914a2.282,2.282,0,0,0,1.166-.293,2.071,2.071,0,0,0,.779-.861L12.4,141h.979v-6.551H12.3v3.709a2.508,2.508,0,0,1-.4,1.535,1.371,1.371,0,0,1-1.166.539,1.122,1.122,0,0,1-.967-.416,2.146,2.146,0,0,1-.316-1.3v-4.066H8.367v4.066a3.315,3.315,0,0,0,.492,1.992A1.746,1.746,0,0,0,10.354,141.17Zm10.143-.146v-.861H19.283a1.281,1.281,0,0,1-.961-.287,1.478,1.478,0,0,1-.275-1.014v-3.586H20.5v-.838H18.047v-2.186l-1.078.469v1.717H15.217v.838h1.752v3.586a2.273,2.273,0,0,0,.5,1.676,2.437,2.437,0,0,0,1.711.486Zm11.408.146a2.7,2.7,0,0,0,1.266-.281,2.466,2.466,0,0,0,.961-.885c.018.123.053.316.094.486a3.653,3.653,0,0,0,.158.51h1.084a4.165,4.165,0,0,1-.158-.533,6.844,6.844,0,0,1-.135-.791c-.041-.3-.035-.627-.053-1.078v-1.342a6.412,6.412,0,0,0-.094-1.295,1.979,1.979,0,0,0-.316-.727,2.311,2.311,0,0,0-.926-.709,3.5,3.5,0,0,0-1.389-.246,5.127,5.127,0,0,0-1.072.111,8.618,8.618,0,0,0-1.148.346v1.078a4.591,4.591,0,0,1,1.1-.463,4.129,4.129,0,0,1,1.119-.158,1.846,1.846,0,0,1,1.248.352,1.512,1.512,0,0,1,.4,1.143v.17H32.59a3.443,3.443,0,0,0-2.156.568,2.229,2.229,0,0,0-.141,3.176A2.218,2.218,0,0,0,31.9,141.17Zm.223-.9a1.422,1.422,0,0,1-1-.328,1.181,1.181,0,0,1-.357-.914,1.112,1.112,0,0,1,.48-1,2.536,2.536,0,0,1,1.418-.328h1.365v.24a2.609,2.609,0,0,1-.516,1.705A1.7,1.7,0,0,1,32.127,140.268Zm10.172.779v-.914h-1.26a.9.9,0,0,1-.785-.369,1.82,1.82,0,0,1-.27-1.1v-6.785H37.178v.844h1.729v5.941a2.615,2.615,0,0,0,.533,1.758,1.83,1.83,0,0,0,1.494.621Zm7.225,0v-.914h-1.26a.9.9,0,0,1-.785-.369,1.82,1.82,0,0,1-.27-1.1v-6.785H44.4v.844h1.729v5.941a2.615,2.615,0,0,0,.533,1.758,1.83,1.83,0,0,0,1.494.621Zm9.352,2.449h.867a1.89,1.89,0,0,0,.943-.229,1.716,1.716,0,0,0,.674-.7,15.312,15.312,0,0,0,.779-1.875c.375-1.037.129-.363.686-1.8l1.729-4.453H63.41l-1.916,5.133-1.945-5.133H58.406l2.537,6.457a4.573,4.573,0,0,1-.686,1.424,1,1,0,0,1-.744.275h-.639Zm9.756-2.326a2.543,2.543,0,0,0,2.092-.879,4.919,4.919,0,0,0,0-5.127,2.908,2.908,0,0,0-4.178,0,4.919,4.919,0,0,0,0,5.127A2.568,2.568,0,0,0,68.631,141.17Zm0-.914a1.4,1.4,0,0,1-1.242-.645,4.443,4.443,0,0,1,0-3.779,1.533,1.533,0,0,1,2.49,0,4.443,4.443,0,0,1,0,3.779A1.4,1.4,0,0,1,68.631,140.256Zm6.744.914a2.282,2.282,0,0,0,1.166-.293,2.071,2.071,0,0,0,.779-.861l.105.984H78.4v-6.551H77.32v3.709a2.508,2.508,0,0,1-.4,1.535,1.371,1.371,0,0,1-1.166.539,1.122,1.122,0,0,1-.967-.416,2.146,2.146,0,0,1-.316-1.3v-4.066H73.389v4.066a3.315,3.315,0,0,0,.492,1.992A1.746,1.746,0,0,0,75.375,141.17Zm6.809-5.836h.9l1.154-2.244v-1.207H82.758v1.207Zm7.787,5.836a2.063,2.063,0,0,0,1.037-.258,1.882,1.882,0,0,0,.715-.738l.105.826H92.8v-9.117H91.723v3.393a1.812,1.812,0,0,0-.709-.744,2.067,2.067,0,0,0-1.043-.252,2.267,2.267,0,0,0-1.875.908,4.143,4.143,0,0,0-.68,2.52,4.257,4.257,0,0,0,.68,2.537A2.213,2.213,0,0,0,89.971,141.17Zm.152-.914a1.293,1.293,0,0,1-1.172-.639,4.694,4.694,0,0,1,0-3.785,1.293,1.293,0,0,1,1.178-.639,1.318,1.318,0,0,1,1.189.639,4.618,4.618,0,0,1,0,3.779A1.326,1.326,0,0,1,90.123,140.256Zm17.2.791v-.914h-1.26a.9.9,0,0,1-.785-.369,1.82,1.82,0,0,1-.27-1.1v-6.785H102.2v.844h1.729v5.941a2.615,2.615,0,0,0,.533,1.758,1.83,1.83,0,0,0,1.494.621Zm4.957-7.8a.155.155,0,0,0,.176-.176v-1.014a.155.155,0,0,0-.176-.176h-.844a.155.155,0,0,0-.176.176v1.014a.155.155,0,0,0,.176.176Zm2.49,7.8v-.914h-1.26a.9.9,0,0,1-.785-.369,1.82,1.82,0,0,1-.27-1.1v-4.23h-2.514v.844h1.436v3.387a2.615,2.615,0,0,0,.533,1.758,1.83,1.83,0,0,0,1.494.621Zm2.15-.047h1.113v-2.631l.8-.756L121.26,141h1.318l-2.988-4.09,2.584-2.473h-1.312l-2.83,2.725v-5.279h-1.113Zm9.867.17a4.888,4.888,0,0,0,1.119-.123,7.658,7.658,0,0,0,1.184-.381v-1.072a6.9,6.9,0,0,1-1.2.5,3.718,3.718,0,0,1-1.084.164,2.049,2.049,0,0,1-1.57-.586,2.3,2.3,0,0,1-.562-1.658v-.035h4.67v-.527a3.473,3.473,0,0,0-.721-2.326,2.5,2.5,0,0,0-2-.844,2.913,2.913,0,0,0-2.238.938,3.653,3.653,0,0,0-.838,2.514,3.582,3.582,0,0,0,.861,2.525A3.12,3.12,0,0,0,126.785,141.17Zm-2.074-4.031a2.355,2.355,0,0,1,.6-1.43,1.708,1.708,0,0,1,1.289-.516,1.539,1.539,0,0,1,1.219.492,2.269,2.269,0,0,1,.445,1.447Zm18.6,3.885v-.861H142.1a1.281,1.281,0,0,1-.961-.287,1.478,1.478,0,0,1-.275-1.014v-3.586h2.449v-.838h-2.449v-2.186l-1.078.469v1.717h-1.752v.838h1.752v3.586a2.273,2.273,0,0,0,.5,1.676,2.437,2.437,0,0,0,1.711.486Zm4.787.146a2.543,2.543,0,0,0,2.092-.879,4.919,4.919,0,0,0,0-5.127,2.908,2.908,0,0,0-4.178,0,4.919,4.919,0,0,0,0,5.127A2.568,2.568,0,0,0,148.1,141.17Zm0-.914a1.4,1.4,0,0,1-1.242-.645,4.443,4.443,0,0,1,0-3.779,1.533,1.533,0,0,1,2.49,0,4.443,4.443,0,0,1,0,3.779A1.4,1.4,0,0,1,148.1,140.256Zm12.164.744h1.113v-2.631l.8-.756L164.607,141h1.318l-2.988-4.09,2.584-2.473h-1.312l-2.83,2.725v-5.279h-1.113Zm7.043,0h1.078v-3.709a2.476,2.476,0,0,1,.41-1.541,1.346,1.346,0,0,1,1.154-.533,1.144,1.144,0,0,1,.979.416,2.191,2.191,0,0,1,.311,1.3V141h1.084v-4.066a3.335,3.335,0,0,0-.492-2,1.76,1.76,0,0,0-1.506-.656,2.213,2.213,0,0,0-1.16.287,2.054,2.054,0,0,0-.779.855l-.105-.984h-.973Zm9.691.17a2.543,2.543,0,0,0,2.092-.879,4.919,4.919,0,0,0,0-5.127,2.908,2.908,0,0,0-4.178,0,4.919,4.919,0,0,0,0,5.127A2.568,2.568,0,0,0,177,141.17Zm0-.914a1.4,1.4,0,0,1-1.242-.645,4.443,4.443,0,0,1,0-3.779,1.533,1.533,0,0,1,2.49,0,4.443,4.443,0,0,1,0,3.779A1.4,1.4,0,0,1,177,140.256Zm5.15.744h1.031l1.043-3.6,1.049,3.6H186.3l1.535-6.562h-1.066l-1.143,5.3-.949-3.387h-.92l-.937,3.387-1.143-5.3h-1.066Zm9.281.158a.924.924,0,0,0,.674-.275,1.065,1.065,0,0,0,0-1.43.962.962,0,0,0-1.348,0,1.065,1.065,0,0,0,0,1.43A.924.924,0,0,0,191.432,141.158ZM2.016,164.545,3.6,162.453l1.582,2.092.551-.393-1.418-2.174,2.133-.926-.211-.6-2.2.721-.117-2.49H3.281l-.117,2.49-2.2-.721-.211.6,2.133.926-1.418,2.174Zm5.807,3.568H8.941l4.605-9.861H12.434Z" transform="translate(56 320)"/></g></svg>