<svg xmlns="http://www.w3.org/2000/svg" viewBox="945 412 290.5 267"><defs><style>.a,.b,.f{fill:none;}.a{stroke:#b9b9b9;}.a,.b{stroke-width:1px;}.b{stroke:#95989a;}.c{fill:#b9b9b9;}.c,.d{font-size:12px;font-family:Hack-Regular, Hack;}.d{fill:#50514f;}.e{stroke:none;}</style></defs><g transform="translate(928 128)"><path class="a" d="M-633,132.953H-922V-128h289V132.953Z" transform="translate(939.5 412.5)"/><g class="b" transform="translate(23 292)"><circle class="e" cx="5" cy="5" r="5"/><circle class="f" cx="5" cy="5" r="4.5"/></g><g class="b" transform="translate(36 292)"><circle class="e" cx="5" cy="5" r="5"/><circle class="f" cx="5" cy="5" r="4.5"/></g><g class="b" transform="translate(49 292)"><circle class="e" cx="5" cy="5" r="5"/><circle class="f" cx="5" cy="5" r="4.5"/></g><line class="a" x2="290" transform="translate(17.5 309.5)"/><text class="c" transform="translate(23 320)"><tspan x="0" y="11">1.</tspan><tspan x="0" y="24">2.</tspan><tspan x="0" y="37">3.</tspan><tspan x="0" y="50">4.</tspan><tspan x="0" y="63">5.</tspan><tspan x="0" y="76">6.</tspan><tspan x="0" y="89">7.</tspan><tspan x="0" y="102">8.</tspan><tspan x="0" y="115">9.</tspan><tspan x="0" y="128">10.</tspan><tspan x="0" y="141">11.</tspan><tspan x="0" y="154">12.</tspan><tspan x="0" y="167">13.</tspan><tspan x="0" y="180">14.</tspan><tspan x="0" y="193">15.</tspan><tspan x="0" y="206">16.</tspan><tspan x="0" y="219">17.</tspan></text><text class="d" transform="translate(56 320)"><tspan x="0" y="11">/*</tspan><tspan x="0" y="24"></tspan><tspan x="0" y="37">Hello,</tspan><tspan x="0" y="50"></tspan><tspan x="0" y="63">I’m a full-stack web designer.</tspan><tspan x="0" y="76"></tspan><tspan x="0" y="89">I have almost a decade of </tspan><tspan x="0" y="102">experience.</tspan><tspan x="0" y="115"></tspan><tspan x="0" y="128">If you scroll down, you can find </tspan><tspan x="0" y="141">out all you’d like to know.</tspan><tspan x="0" y="154"></tspan><tspan x="0" y="167">*/</tspan></text></g></svg>