<svg xmlns="http://www.w3.org/2000/svg" xmlns:xlink="http://www.w3.org/1999/xlink" viewBox="3145 3626 563.396 437.05"><defs><style>.a{fill:#f5f5f5;}.b{fill:#50514f;}.c{fill:none;}.d{fill:#fff;}.e{filter:url(#c);}.f{filter:url(#a);}</style><filter id="a" x="3145" y="3691.279" width="400" height="499.559" filterUnits="userSpaceOnUse"><feOffset dy="3" input="SourceAlpha"/><feGaussianBlur stdDeviation="3" result="b"/><feFlood flood-opacity="0.161"/><feComposite operator="in" in2="b"/><feComposite in="SourceGraphic"/></filter><filter id="c" x="3359.789" y="3626" width="348.607" height="437.05" filterUnits="userSpaceOnUse"><feOffset dy="3" input="SourceAlpha"/><feGaussianBlur stdDeviation="3" result="d"/><feFlood flood-opacity="0.161"/><feComposite operator="in" in2="d"/><feComposite in="SourceGraphic"/></filter></defs><g transform="translate(3123 3394)"><g transform="translate(31 303.279)"><g class="f" transform="matrix(1, 0, 0, 1, -3154, -3697.28)"><rect class="a" width="244.27" height="309.549" transform="translate(3154 3697.28)"/></g><g transform="translate(48.433 93.016)"><path class="b" d="M62.919,2A60.98,60.98,0,1,0,123.96,62.98,60.911,60.911,0,0,0,62.919,2Zm.061,109.764A48.784,48.784,0,1,1,111.764,62.98,48.77,48.77,0,0,1,62.98,111.764Zm25.49-74.639-6.464,6.464-6.464-6.464-6.464,6.464,6.464,6.464-6.464,6.464,6.464,6.464,6.464-6.464,6.464,6.464,6.464-6.464-6.464-6.464,6.464-6.464ZM37.49,62.98l6.464-6.464,6.464,6.464,6.464-6.464-6.464-6.464,6.464-6.464-6.464-6.464-6.464,6.464L37.49,37.124l-6.464,6.464,6.464,6.464-6.464,6.464Zm25.49,12.2A33.516,33.516,0,0,0,31.819,96.519H94.14A33.516,33.516,0,0,0,62.98,75.176Z" transform="translate(10.196 10.196)"/><path class="c" d="M0,0H146.351V146.351H0Z"/></g></g><g transform="translate(113.125 238)"><g class="e" transform="matrix(1, 0, 0, 1, -3236.13, -3632)"><rect class="d" width="330.607" height="419.05" transform="translate(3368.79 3632)"/></g><g transform="translate(0 141.737)"><path class="b" d="M74.939,2a73.012,73.012,0,1,0,73.085,73.012A72.93,72.93,0,0,0,74.939,2Zm.073,131.422a58.41,58.41,0,1,1,58.41-58.41A58.394,58.394,0,0,1,75.012,133.422Zm7.3-73.45,7.739,7.739,7.739-7.739,7.739,7.739,7.739-7.739L97.792,44.493Zm-30.081,0,7.739,7.739,7.739-7.739L52.232,44.493,36.754,59.972l7.739,7.739Zm22.78,55.2a40.129,40.129,0,0,0,37.309-25.554H37.7A40.129,40.129,0,0,0,75.012,115.169Z" transform="translate(219.999 -2)"/><path class="c" d="M0,0H175.23V175.23H0Z" transform="translate(0 73.326)"/></g></g></g></svg>
